<svg xmlns="http://www.w3.org/2000/svg" viewBox="0 0 4889.28 1051.35"><defs><style>.cls-1{isolation:isolate;}.cls-2{fill:#d10056;}</style></defs><title>Recurso 1</title><g id="Capa_2" data-name="Capa 2"><g id="Capa_1-2" data-name="Capa 1"><g id="Capa_2-2" data-name="Capa 2"><g id="ISO_LOGO_HDF" data-name="ISO LOGO HDF"><g class="cls-1"><g class="cls-1"><path class="cls-2" d="M729.08,509.12l.36-39.42q0-27.74-2.15-43.44-1.06-9.11-9.48-14.23t-14.67-5.11q-6.27,0-8.23-2.37c-1.31-1.58-2-2.86-2-3.84q0-4,10-4l40.43,1.46,31.49-.73q7.86,0,7.87,5.11,0,6.21-12.52,6.2-7.17,0-10.38,15a145.83,145.83,0,0,0-3.22,30.66v13.5l-.71,33.58q0,9.14,2.14,11.68t10,2.56l58.68-.37,67.63.73q3.93,0,3.93-50.73V445.61q0-27.37-10.73-33.58a25.09,25.09,0,0,0-8.77-3.29,33.2,33.2,0,0,1-7.51-2,4.85,4.85,0,0,1-3-4.93q0-3.65,14-3.65l34.71.73,27.91-.73c5.48,0,8.23,1.59,8.23,4.74s-1.67,4.75-5,4.75q-10,0-15.21,6.2t-5.19,16.43l-1.79,143.44v13.51l1.44,33.58q0,23.73,30.05,27c2.86,0,4.3,1.34,4.3,4,0,1.7-1.2,2.79-3.58,3.28s-7,.73-14,.73L916.57,654l-33.63,1.83h-6.09c-3.34,0-5.31-.48-5.9-1.46a6.47,6.47,0,0,1-.89-3.47q0-2,3.57-3.83a38.25,38.25,0,0,1,7.88-2.92,21,21,0,0,0,8.23-4.38q7.51-5.47,7.51-34.31l1.07-64.6c0-3.66-1.43-6.21-4.29-7.67S886.52,531,880.08,531s-16.11.24-29,.73l-19.32.36L765.93,531c-3.57,0-6,.73-7.15,2.19S757,538.45,757,544.52l-1.43,44.9v15.69q0,15.71,2.86,23.36t14,15q2.85,1.83,10.37,1.82,11.81,0,11.81,4,0,6.57-11.45,6.57l-29.7-1.46-38.64,1.82q-16.83,0-16.82-5.47c0-3.4,3.7-5.6,11.09-6.57q4.31-.36,9-4.56a20,20,0,0,0,6.08-11.32q1.42-7.11,3.22-38.51t1.79-59.86Z"/><path class="cls-2" d="M1146.28,526.27l1.07-63.14q0-9.86-.71-33.22a19.59,19.59,0,0,0-9-16.42,37,37,0,0,0-20-6.21q-5.72,0-5.72-6.57,0-5.1,10-5.11l9.66.73,87.3,1.83,71.57-1.46q6.78,0,6.79,8.39,0,2.19-2.14,14.42a118.58,118.58,0,0,0-2.15,19.16q0,11.68-5.55,11.68t-5.54-8.76q0-8.76-6.08-16.79c-4.06-5.34-9.07-8.15-15-8.39q-32.21-2.55-49.38-2.56h-9.3q-18.61,0-21.47,2.56-5.37,4.74-5.37,80.66,0,18.27,6.8,18.62h35.07q21.46,0,28.62-1.46,18.6-3.64,21.11-19c.72-4.14,2.26-6.21,4.65-6.21s3.81.37,4.3,1.1.71,2.32.71,4.74l-2.86,38.33,1.07,22.26c0,6.09-.84,9.13-2.5,9.13q-5.37,0-7.87-8.76-5-15.33-8.95-17.88-7.52-5.12-26.12-5.12h-25.76l-11.45-.36h-2.51q-14.67,0-14.67,6.94l-.71,52.55v14.6q0,26.28,8.76,29a52.09,52.09,0,0,0,15.21,2.74q53.67,0,77.65-8.76,21.11-8,25.76-16.79,4.29-9.12,7.87-9.13,4.29,0,4.29,6.21,0,15.71-15.38,31.75t-26.84,16.06q-25.76,0-58.14-1.82T1173.11,654l-48.66,3.29q-7.52,0-7.51-3.65v-4.38q0-2.19,3.58-2.92,3.93-.36,12.16-4.38t10.92-16.79q2.67-12.78,2.68-53.66Z"/><path class="cls-2" d="M1499.07,499.63l-.35-61.69q0-13.49-5.37-20.62t-12-8a92.69,92.69,0,0,1-12-2.37c-3.58-1-5.37-2.68-5.37-5.11q0-5.83,10.37-5.84h59.4l35.78-1.1q32.2,0,55.1,16.61t22.9,44.71q0,18.62-7,32.67t-15.39,20.26q-8.42,6.21-15.39,10.77t-7,6q0,4.38,30.05,47.27T1674,628.11q13.59,17.16,32.92,17.15,5,0,5,4.38,0,5.49-4.29,7.3T1686,658.77a59.6,59.6,0,0,1-31.31-8.39q-19.32-11.31-64-87.61-17.18-28.46-26.48-28.47h-29.34c-2.86,0-4.59,1.23-5.18,3.66s-.9,9.61-.9,21.53v29.56l.36,19.35v3.28q0,15,6.8,23.18t15.2,9.49q8.41,1.29,15.21,2.92t6.8,5.29q0,5.84-6.44,5.84l-51.17-2.55-39.36,1.46q-7.51,0-7.51-5.84,0-6.19,15-8,5.71-.72,10.37-8t4.66-20.81Zm29.7-39.42q0,37.6.36,46.54t2.5,10.4q5.37,3.29,15.39,3.28h14q30.42,0,43.48-14.23t13.06-36.68q0-22.45-17.36-41.07t-52.41-18.61q-13.24,0-16.11,7.12t-2.86,33Z"/><path class="cls-2" d="M1872.26,656.58q-7.52,0-7.51-5.84,0-4.74,10.73-5.11,3.93-.36,9-6t7.15-15.15q2.16-9.5,4.66-65t2.5-87.05q0-31.57-7-45.45t-30.23-19.34q-4.65-1.09-4.65-5.48c0-3.65,2.14-5.47,6.44-5.47l19,1.46,26.84-.73q6.8,0,8.58,5.11,4.3,9.49,15.39,34.13t17.71,39.23q6.62,14.61,17,37.23l16.81,36.69q6.45,14.05,13.42,28.28t10.74,21c2.5,4.51,4.11,6.75,4.83,6.75a3.47,3.47,0,0,0,2.32-1.27,17,17,0,0,0,2.51-3.47,36.77,36.77,0,0,0,2.14-4.38c.6-1.46,1.44-3.34,2.51-5.66s1.84-4.07,2.32-5.29l46.16-97.09q19-39.42,25.41-55.12l8.23-18.25q1.07-2.91,1.61-4.56c.35-1.09.65-1.94.89-2.55s.48-1.15.72-1.65.65-1.58,1.25-3.28a9.88,9.88,0,0,1,2-3.65q2.85-2.92,10.37-2.92l30.77.73c4.06,0,6.09,1.59,6.09,4.74,0,2.44-.78,4.2-2.33,5.3s-5,2-10.38,2.73-9.24,3.78-11.62,9.13-3.58,20-3.58,44,.71,49.28,2.14,75.92,2.15,43.38,2.15,50.19q0,36.51,5.73,46.54t24,10a6.38,6.38,0,0,1,4.47,1.83c1.31,1.22,2,2.31,2,3.28,0,3.9-1.31,5.84-3.94,5.84h-3.93l-36.5-1.46-37.21,1.83q-6.43,0-6.44-5.11,0-5.48,9.66-6.57,3.57-.36,7.69-4.56t5.73-12.05q1.61-7.85,1.61-21.72t-.54-30.29q-.54-16.43-1.25-31.94t-1.43-29.2q-.72-13.68-1.08-22.45l-.71-8.76q0-15.68-3.22-15.69a2.53,2.53,0,0,0-2,1.09c-.6.73-1.13,1.34-1.61,1.83a7.93,7.93,0,0,0-1.43,2.37,19.52,19.52,0,0,1-1.43,2.74c-.48.73-1.08,1.77-1.79,3.1s-1.31,2.5-1.79,3.47l-1.79,4a37.34,37.34,0,0,0-2.15,4.38l-49.73,102.57q-8.6,17.9-16.64,35T2010,649.1a4.56,4.56,0,0,1-4.12,2.37q-2.69,0-4.83-3.1t-6.44-13.69q-4.29-10.57-7.51-17.52-65.47-135.78-66.91-137.79c-1-1.33-1.79-2-2.51-2q-2.87,0-2.86,14.6l-3.22,96.36v16.43q0,29.94,11.81,36.86a26.13,26.13,0,0,0,11.81,4q8.94,1.1,8.94,4.93c0,2.55-.36,4.26-1.07,5.11s-2.15,1.27-4.3,1.27l-37.21-1.46Z"/><path class="cls-2" d="M2356,526.27l1.07-63.14q0-9.86-.72-33.22a19.61,19.61,0,0,0-8.94-16.42,37.06,37.06,0,0,0-20-6.21q-5.73,0-5.72-6.57,0-5.1,10-5.11l9.67.73,87.3,1.83,71.56-1.46q6.79,0,6.8,8.39,0,2.19-2.15,14.42a118.34,118.34,0,0,0-2.14,19.16q0,11.68-5.55,11.68t-5.55-8.76q0-8.76-6.08-16.79c-4.06-5.34-9.07-8.15-15-8.39q-32.19-2.55-49.37-2.56h-9.31q-18.6,0-21.46,2.56-5.37,4.74-5.37,80.66,0,18.27,6.8,18.62h35.06q21.46,0,28.63-1.46,18.6-3.64,21.11-19,1.07-6.21,4.65-6.21c2.38,0,3.81.37,4.29,1.1s.72,2.32.72,4.74l-2.86,38.33,1.07,22.26q0,9.13-2.51,9.13-5.36,0-7.87-8.76-5-15.33-8.94-17.88-7.52-5.12-26.12-5.12h-25.77l-11.45-.36h-2.5q-14.67,0-14.67,6.94l-.72,52.55v14.6q0,26.28,8.77,29a52,52,0,0,0,15.21,2.74q53.67,0,77.64-8.76,21.11-8,25.76-16.79,4.3-9.12,7.88-9.13,4.29,0,4.29,6.21,0,15.71-15.39,31.75t-26.83,16.06q-25.77,0-58.15-1.82T2382.85,654l-48.66,3.29q-7.52,0-7.51-3.65v-4.38q0-2.19,3.57-2.92,3.95-.36,12.17-4.38t10.91-16.79q2.68-12.78,2.69-53.66Z"/></g><g class="cls-1"><path class="cls-2" d="M2719.9,656.58l-30.42.73q-7.86,0-7.87-5.84,0-3.29,4.65-4.2t11.45-5.66q6.79-4.73,9.67-15.51t6.08-70.26q3.21-59.49,3.22-86.51t-8.59-42.52q-8.58-15.51-27.91-17.7c-3.1-.24-4.65-2.06-4.65-5.48,0-1.46.83-2.85,2.51-4.19a9.94,9.94,0,0,1,6.44-2l13.59.36,17.53-.73a18.37,18.37,0,0,1,7.52,2q4.29,2,5,3.65a28.32,28.32,0,0,0,3.93,5.48q3.22,3.82,8.59,10t9.66,12q48.66,64.61,130.24,155.85c1.44,1.71,3.16,3.65,5.19,5.84s3.46,3.84,4.3,4.93a30.68,30.68,0,0,0,2.68,3.11q2.51,2.55,3.94,2.55,3.57,0,3.57-22.63V537.22l-.71-74.82v-2.56q0-33.57-11.45-42.7a25.65,25.65,0,0,0-7.16-4.2c-1.91-.6-4.65-1.28-8.23-2Q2858,408,2858,402.72t6.8-5.29l34,.36,32.2-.73q6.09,0,8.41,1.28a4.14,4.14,0,0,1,2.33,3.83,4.6,4.6,0,0,1-2.15,4,53.17,53.17,0,0,1-10.37,4.38q-11.82,6.57-11.81,41.24v13.87l-3.94,180.68v7.3q0,8.39-5,8.39a7.8,7.8,0,0,1-5.72-2.55q-118.8-140.52-141.87-167t-25.59-26.46q-3.57,0-3.57,29.75t-1.44,69.71q-1.42,40-1.43,43.62,0,16.43,5.55,25t12,9.67q6.43,1.1,12,2.38t5.55,5.11q0,3.83-1.25,4.92c-.84.73-2.33,1.1-4.48,1.1Z"/></g><g class="cls-1"><path class="cls-2" d="M3133.53,655.85l-30.77,1.46q-10.38,0-10.38-4.38,0-5.11,5.37-6.94,11.45-4.38,20-19.52t43.11-91.62q34.53-76.46,61.37-134.87c1.66-3.65,3.15-6,4.47-6.93a9.52,9.52,0,0,1,5.72-1.46q3.76,0,4.83,1.46t3.94,9.85c1.91,5.61,3.4,9.86,4.47,12.78s2.8,7.66,5.19,14.23,6.2,16.43,11.45,29.57,17.23,41.92,36,86.32,29.52,69.6,32.38,75.56a46.06,46.06,0,0,0,11.81,15.33q7.52,6.39,13.06,6.93a42.44,42.44,0,0,1,9.3,1.83q3.77,1.27,3.76,5.65,0,5.49-9.66,5.48l-32.2-2.19-33.28,1.46q-11.1,0-14.13-.91a3.76,3.76,0,0,1-3.05-3.84,5.07,5.07,0,0,1,2.87-4.56,18.41,18.41,0,0,1,6.08-2.19,11.6,11.6,0,0,0,6.08-3.28q2.86-2.75,2.87-9.13t-9-31.21q-9-24.81-15-36.5Q3267,558,3255.54,558l-43.29.73h-19q-16.09,0-20.21,1.83t-6.8,7.66q-2.68,5.84-7.69,16.24t-6.8,14.42q-1.8,4-4.3,10.22-4.65,10.95-4.65,18.25t4.12,11.68a15.52,15.52,0,0,0,9.12,5.11q13.23,1.1,13.24,6.93a5.88,5.88,0,0,1-1.07,3.84q-1.08,1.27-5,1.27Zm65.84-167.72q-17.17,40.33-17.18,44.71t3.22,5.48q3.23,1.09,15,1.1h11.09l34-.37q14,0,14-5.29T3242,488.13q-17.55-40.32-22.19-40.33Q3216.54,447.8,3199.37,488.13Z"/></g><g class="cls-1"><path class="cls-2" d="M3531.77,498.53l.72-52.56q0-20.06-4.66-27.55t-21.82-10q-7.87-1.1-7.87-6.94c0-1.94.71-3.22,2.14-3.83a16.25,16.25,0,0,1,6.09-.91l40.43,1.46,33.63-.73q7.52,0,7.52,5.11,0,3.29-2.51,4a33.48,33.48,0,0,1-6.26,1.1,17.23,17.23,0,0,0-7.34,2.55q-8.94,5.13-8.94,33.95v10.22l-.36,78.84q0,36.13,2.15,47.09a199.23,199.23,0,0,0,5,20.25,48.21,48.21,0,0,0,7,14.79,139.84,139.84,0,0,0,10.38,12,45,45,0,0,0,14.49,10.22q19.32,8,44,8,38.64,0,53.67-8.76a82.1,82.1,0,0,0,14.85-11.5,53.76,53.76,0,0,0,13.06-19.16q11.09-27,11.09-68.62l-.35-77.38c0-8.52-.18-15.2-.54-20.08a63.74,63.74,0,0,0-3.58-16.06q-3-8.76-7.69-12a24.42,24.42,0,0,0-10.38-4.2l-9.3-1.46c-2.39-.36-3.58-1.4-3.58-3.1q0-5.83,7.16-5.84l27.55.73,30.41-1.1q7.51,0,7.52,4.75,0,2.93-7.7,7.48t-9.48,8.21q-3.95,7.67-3.93,24.09l.35,24.46q0,70.08-5.72,107.31t-17.53,54q-24,35.4-84.8,35.4t-85.88-23.36a79.3,79.3,0,0,1-24.33-44.71q-4.65-26.09-4.65-90Z"/></g><g class="cls-1"><path class="cls-2" d="M3941.82,393.78q4.65,0,29.16,1.46t96.43,1.46q71.91,0,86.95-2.19,3.93,0,5.36,2.19a7.53,7.53,0,0,1,1.43,4l2.15,29.57q0,9.12-1.07,11.5t-4.65,2.37q-2.88,0-4.83-7.48a55.56,55.56,0,0,0-4.12-11.5q-5.37-9.5-31.13-9.49H4071q-8.59,0-10.56,3.47t-2,19.89v17.88l-1.07,133.59-.36,23.73q0,15.71,4.83,20.44a33.15,33.15,0,0,0,10.56,7.12,34.09,34.09,0,0,0,9.66,2.73c6.67.5,10,2.68,10,6.57,0,2.69-.6,4.38-1.79,5.11s-3.46,1.1-6.8,1.1l-39.72-2.92-36.49,2.55q-13.25,0-13.24-5.84,0-3.65,2.14-4.92t8.41-2.19c4.17-.61,6.86-1,8-1.28q12.16-2.93,13.6-14.6,3.57-32.11,3.58-138l-.36-65.34c0-4.61-1.31-7.48-3.94-8.57s-11.33-1.65-26.12-1.65a326.12,326.12,0,0,0-34.88,1.46q-12.7,1.47-14.85,2.74a21.32,21.32,0,0,0-5.19,5.29,36.43,36.43,0,0,0-5,9.31,65.94,65.94,0,0,0-2.68,8.58q-1.08,8.4-6.8,8.39c-2.63,0-3.94-2.06-3.94-6.2a178.76,178.76,0,0,1,1.79-26.46q1.79-11.87,2-13.69a13.81,13.81,0,0,1,.36-2.37,13.18,13.18,0,0,0,.36-1.83,4.49,4.49,0,0,1,.53-1.82c.24-.37.54-.85.9-1.46a3.15,3.15,0,0,1,1.25-1.28,15.21,15.21,0,0,1,1.79-.73A23.13,23.13,0,0,1,3941.82,393.78Z"/></g><g class="cls-1"><path class="cls-2" d="M4323.59,655.85l-30.77,1.46q-10.38,0-10.38-4.38,0-5.11,5.37-6.94,11.44-4.38,20-19.52T4351,534.85q34.53-76.46,61.36-134.87c1.67-3.65,3.16-6,4.48-6.93a9.52,9.52,0,0,1,5.72-1.46q3.76,0,4.83,1.46t3.94,9.85c1.91,5.61,3.4,9.86,4.47,12.78s2.8,7.66,5.19,14.23,6.2,16.43,11.45,29.57,17.23,41.92,36,86.32,29.52,69.6,32.38,75.56a46.06,46.06,0,0,0,11.81,15.33q7.52,6.39,13.06,6.93a42.56,42.56,0,0,1,9.3,1.83q3.77,1.27,3.76,5.65,0,5.49-9.66,5.48l-32.21-2.19-33.27,1.46q-11.1,0-14.14-.91a3.76,3.76,0,0,1-3-3.84,5.05,5.05,0,0,1,2.87-4.56,18.41,18.41,0,0,1,6.08-2.19,11.6,11.6,0,0,0,6.08-3.28q2.86-2.75,2.86-9.13t-8.94-31.21q-9-24.81-15-36.5Q4457,558,4445.6,558l-43.29.73h-19q-16.1,0-20.21,1.83t-6.8,7.66q-2.68,5.84-7.7,16.24t-6.79,14.42q-1.8,4-4.3,10.22-4.65,10.95-4.65,18.25t4.12,11.68a15.52,15.52,0,0,0,9.12,5.11q13.23,1.1,13.24,6.93a5.88,5.88,0,0,1-1.07,3.84q-1.08,1.27-5,1.27Zm65.83-167.72q-17.17,40.33-17.17,44.71t3.22,5.48q3.22,1.09,15,1.1h11.09l34-.37q14,0,14-5.29T4432,488.13q-17.53-40.32-22.18-40.33Q4406.6,447.8,4389.42,488.13Z"/></g><g class="cls-1"><path class="cls-2" d="M4859.58,404.36l8.23-2.92c3.1,0,4.89,1,5.37,2.92q7.51,44.17,7.52,52c0,5.23-1.68,7.84-5,7.84q-3.22,0-6.27-7.84a84.6,84.6,0,0,0-7.15-14.42,60.51,60.51,0,0,0-5.91-8.4q-1.78-1.81-9.3-8.76-19.32-17.52-44.19-17.52t-39.89,11q-15,10.95-15,28.47t8.76,28.11q8.78,10.59,23.44,16.42t30.77,10.95q43.29,13.89,64.05,36.14,14.31,15.7,14.31,39.06,0,38.31-24,60.77t-59.4,22.44q-24.69,0-39.71-2.73a105.64,105.64,0,0,1-30.77-11.14q-4.67-2.91-11.1-28.46t-6.44-31.94q0-6.39,4.83-6.39t5.91,3.65q13.23,32.49,31.13,46,19.32,15,46.69,15t43.65-14.41q16.27-14.42,16.28-37.78,0-17.15-11.09-28.65a65.77,65.77,0,0,0-25.4-16.61q-53.32-18.24-72.28-29.57-32.56-19.71-32.56-52.92t23.08-52.74q23.07-19.53,59.93-19.53,13.59,0,32.38,6T4859.58,404.36Z"/></g></g><ellipse cx="172.81" cy="525.69" rx="3.88" ry="3.96"/><path class="cls-2" d="M345.61,350.3V525.59h-.45V876.18c-.1-64.27-51.42-116.34-114.79-116.58v-.29h-173C25.72,759.34,0,733.19,0,700.9H0V175c0,64.54,51.57,116.86,115.19,116.86H288c31.73-.09,57.52,26.07,57.61,58.43Z"/><path class="cls-2" d="M115.19,0V233.73C74,233.78,35.88,211.39,15.24,175c-1.13-2-2.22-4.08-3.24-6.17A118.49,118.49,0,0,1,15.58,58.15C36.29,22.08,74.22-.06,115.19,0Z"/><path class="cls-2" d="M345.16,922.94V946.1a117.13,117.13,0,0,1-14.9,46.9c-20.68,36.18-58.67,58.41-99.73,58.35h-.16v-58q3.85,0,7.65-.29h-7.65V817.66h.12c41.14-.08,79.21,22.23,99.87,58.52q1.68,2.93,3.18,6a117.86,117.86,0,0,1,8.32,22.24h0A116.09,116.09,0,0,1,345.16,922.94Z"/></g></g></g></g></svg>