<?xml version="1.0" encoding="UTF-8"?>
<svg xmlns="http://www.w3.org/2000/svg" viewBox="0 0 4555.19 1745.59">
  <defs>
    <style>.cls-1{font-size:365px;font-family:SortsMillGoudy-Regular, Sorts Mill Goudy;letter-spacing:0.38em;}.cls-1,.cls-7{fill:#d10056;}.cls-2{letter-spacing:0.37em;}.cls-3{letter-spacing:0.32em;}.cls-4{letter-spacing:0.29em;}.cls-5{letter-spacing:0.37em;}.cls-6{letter-spacing:0.38em;}</style>
  </defs>
  <title>iso-logo-vertical</title>
  <g id="Capa_2" data-name="Capa 2">
    <g id="ISO_LOGO_VDF" data-name="ISO+LOGO VDF">
      <text class="cls-1" transform="translate(106.97 1585.72)">HERME<tspan class="cls-2" x="2022.44" y="0">N</tspan><tspan class="cls-3" x="2447.67" y="0">A</tspan><tspan x="2861.58" y="0">U</tspan><tspan class="cls-4" x="3298.12" y="0">T</tspan><tspan class="cls-5" x="3661.65" y="0">A</tspan><tspan class="cls-6" x="4091.62" y="0">S</tspan></text>
      <circle cx="2237.55" cy="525.69" r="3.96"></circle>
      <path class="cls-7" d="M2413.83,350.3V525.59h-.45V876.18c-.16-64.27-52.47-116.34-117.07-116.58v-.29H2119.8a58.47,58.47,0,0,1-58.53-58.42V175c0,64.54,52.61,116.86,117.52,116.86h176.28A58.6,58.6,0,0,1,2413.83,350.3Z"></path>
      <path class="cls-7" d="M2178.79,0V233.73a117.59,117.59,0,0,1-102-58.72c-1.17-2-2.27-4.08-3.32-6.17a115.3,115.3,0,0,1-8.57-22.9A117,117,0,0,1,2178.79,0Z"></path>
      <path class="cls-7" d="M2413.38,922.94V946.1A115.49,115.49,0,0,1,2398.17,993a117.58,117.58,0,0,1-101.74,58.35h-.12V993.32q3.93,0,7.8-.29h-7.8V817.66h.12a117.59,117.59,0,0,1,101.85,58.52q1.69,2.93,3.23,6a115.53,115.53,0,0,1,8.49,22.24s0,0,0,0A115.68,115.68,0,0,1,2413.38,922.94Z"></path>
    </g>
  </g>
</svg>
