<?xml version="1.0" encoding="utf-8"?>
<!-- Generator: Adobe Illustrator 22.1.0, SVG Export Plug-In . SVG Version: 6.00 Build 0)  -->
<svg width="53" height="56" version="1.1" id="Capa_2" xmlns="http://www.w3.org/2000/svg" xmlns:xlink="http://www.w3.org/1999/xlink" x="0px" y="0px"
	 viewBox="0 0 53 56" style="enable-background:new 0 0 53 56;" xml:space="preserve">
<style type="text/css">
	.st0{fill:#D00A57;}
	.st1{fill:#FFFFFF;}
</style>
<ellipse class="st0" cx="26.5" cy="28" rx="26.5" ry="28"/>
<path class="st1" d="M35,18.7V28h0v18.7c0-3.4-2.6-6.2-5.9-6.2v0h-8.8c-1.6,0-2.9-1.4-2.9-3.1v-28c0,3.4,2.6,6.2,5.9,6.2H32
	C33.7,15.5,35,16.9,35,18.7z"/>
<path class="st1" d="M23.2,0v12.4c-2.2,0-4.1-1.3-5.1-3.1C18,9.2,18,9.1,17.9,9c-0.2-0.4-0.3-0.8-0.4-1.2c-0.1-0.5-0.2-1-0.2-1.5
	c0-1.1,0.3-2.2,0.8-3.1C19.1,1.2,21,0,23.2,0z"/>
<path class="st1" d="M35,49.1v1.2c-0.1,0.9-0.4,1.8-0.8,2.5c-1,1.9-2.9,3.1-5.1,3.1h0v-3.1c0.1,0,0.3,0,0.4,0h-0.4v-9.3h0
	c2.2,0,4.1,1.3,5.1,3.1c0.1,0.1,0.1,0.2,0.2,0.3c0.2,0.4,0.3,0.8,0.4,1.2c0,0,0,0,0,0C34.9,48.5,34.9,48.8,35,49.1z"/>
</svg>
