<svg id="Capa_1" data-name="Capa 1" xmlns="http://www.w3.org/2000/svg" viewBox="0 0 4982 1051.38"><defs><style>.cls-1,.cls-2,.cls-3,.cls-4,.cls-5,.cls-6,.cls-7{isolation:isolate;}.cls-2,.cls-3,.cls-4,.cls-5,.cls-6,.cls-7{font-size:365px;font-family:SortsMillGoudy-Regular, Sorts Mill Goudy;}.cls-2,.cls-3,.cls-4,.cls-5,.cls-6,.cls-7,.cls-8{fill:#d10056;}.cls-2{letter-spacing:0.38em;}.cls-3{letter-spacing:0.37em;}.cls-4{letter-spacing:0.32em;}.cls-5{letter-spacing:0.29em;}.cls-6{letter-spacing:0.37em;}.cls-7{letter-spacing:0.38em;}</style></defs><title>Mesa de trabajo 1</title><g id="Capa_2" data-name="Capa 2"><g id="ISO_LOGO_HDF" data-name="ISO LOGO HDF"><g class="cls-1"><text class="cls-2" transform="translate(699.57 655.85)">HERME</text><text class="cls-3" transform="translate(2722.01 655.85)">N</text><text class="cls-4" transform="translate(3147.24 655.85)">A</text><text class="cls-2" transform="translate(3561.15 655.85)">U</text><text class="cls-5" transform="translate(3997.69 655.85)">T</text><text class="cls-6" transform="translate(4361.22 655.85)">A</text><text class="cls-7" transform="translate(4791.19 655.85)">S</text></g><circle cx="176.28" cy="525.69" r="3.96"/><path class="cls-8" d="M352.56,350.3V525.59h-.46V876.18C352,811.91,299.64,759.84,235,759.6v-.29H58.53A58.47,58.47,0,0,1,0,700.9H0V175c0,64.54,52.61,116.86,117.51,116.86H293.79a58.61,58.61,0,0,1,58.77,58.43Z"/><path class="cls-8" d="M117.51,0V233.73A117.63,117.63,0,0,1,15.55,175c-1.16-2-2.27-4.08-3.31-6.17A116.88,116.88,0,0,1,117.51,0Z"/><path class="cls-8" d="M352.1,922.94V946.1A115.7,115.7,0,0,1,336.9,993a117.58,117.58,0,0,1-101.74,58.35H235v-58q3.93,0,7.8-.29H235V817.66h.12A117.57,117.57,0,0,1,337,876.18q1.71,2.93,3.24,6a116.42,116.42,0,0,1,8.49,22.24h0A114,114,0,0,1,352.1,922.94Z"/></g></g></svg>